<svg height="512pt" viewBox="0 0 512 512" width="512pt" xmlns="http://www.w3.org/2000/svg"><path d="m15.015625 500.28125c14.65625-11.226562 30.511719-20.796875 47.277344-28.53125l87.347656-40.308594c5.292969-2.441406 8.714844-7.789062 8.714844-13.621094v-67.8125h195.292969v67.8125c0 5.832032 3.417968 11.179688 8.714843 13.621094l87.347657 40.308594c16.761718 7.734375 32.617187 17.304688 47.273437 28.53125l15.015625 11.503906h-512zm0 0" fill="#a19d8d"/><path d="m449.707031 471.75-87.347656-40.308594c-5.292969-2.445312-8.714844-7.789062-8.714844-13.621094v-67.8125h-97.644531v161.773438h256l-15.015625-11.5c-14.65625-11.226562-30.511719-20.796875-47.277344-28.53125zm0 0" fill="#696453"/><path d="m353.648438 417.820312v-67.8125h-195.292969v67.8125c0 5.832032-3.421875 11.175782-8.714844 13.621094 0 0 23.148437 80.34375 106.363281 80.34375 83.210938 0 106.359375-80.34375 106.359375-80.34375-5.296875-2.445312-8.714843-7.789062-8.714843-13.621094zm0 0" fill="#ffd2b4"/><path d="m353.648438 417.820312v-67.8125h-97.648438v161.773438h.003906c83.210938 0 106.359375-80.34375 106.359375-80.34375-5.296875-2.441406-8.714843-7.785156-8.714843-13.617188zm0 0" fill="#ffbea0"/><path d="m256 420.019531c-67.269531 0-122-54.730469-122-122v-99.011719h244v99.011719c0 67.269531-54.726562 122-122 122zm0 0" fill="#ffe9d6"/><path d="m256 420.019531c67.273438 0 122-54.730469 122-122v-99.011719h-122zm0 0" fill="#ffd2b4"/><path d="m397.039062 199.007812h-282.078124v-30.511718c0-77.769532 63.269531-141.039063 141.039062-141.039063s141.039062 63.273438 141.039062 141.039063zm0 0" fill="#ffcf2c"/><path d="m397.039062 199.007812v-30.511718c0-77.769532-63.269531-141.039063-141.039062-141.039063v171.550781zm0 0" fill="#f7a520"/><path d="m409.640625 214.007812h-307.28125c-8.285156 0-15-6.714843-15-15 0-8.28125 6.714844-15 15-15h307.28125c8.285156 0 15 6.71875 15 15 0 8.285157-6.714844 15-15 15zm0 0" fill="#ffe645"/><path d="m409.640625 184.007812h-153.640625v30h153.640625c8.285156 0 15-6.714843 15-15 0-8.28125-6.714844-15-15-15zm0 0" fill="#ffcf2c"/><path d="m256 148.6875c-8.285156 0-15-6.714844-15-15v-118.6875c0-8.285156 6.714844-15 15-15s15 6.714844 15 15v118.6875c0 8.285156-6.714844 15-15 15zm0 0" fill="#ffe645"/><path d="m271 133.6875v-118.6875c0-8.285156-6.714844-15-15-15v148.6875c8.285156 0 15-6.714844 15-15zm0 0" fill="#ffcf2c"/><path d="m191.605469 130.289062c-8.285157 0-15-6.71875-15-15v-72.832031c0-8.28125 6.714843-15 15-15 8.28125 0 15 6.71875 15 15v72.832031c0 8.28125-6.71875 15-15 15zm0 0" fill="#ffe645"/><path d="m320.402344 130.289062c-8.28125 0-15-6.71875-15-15v-72.832031c0-8.28125 6.71875-15 15-15 8.285156 0 15 6.71875 15 15v72.832031c0 8.28125-6.714844 15-15 15zm0 0" fill="#ffcf2c"/></svg>